<svg xmlns="http://www.w3.org/2000/svg" viewBox="0 0 100 100">
  <polygon points="96.71,50.00 95.74,52.25 94.13,54.34 92.01,56.23 89.53,57.87 86.85,59.24 84.14,60.36 81.56,61.29 79.25,62.12 77.33,62.91 75.83,63.81 74.77,64.86 74.11,66.11 73.77,67.62 73.63,69.39 73.59,71.37 73.50,73.50 73.27,75.67 72.77,77.75 71.97,79.62 70.83,81.18 69.36,82.31 67.62,82.96 65.65,83.08 63.55,82.74 61.42,81.95 59.35,80.85 57.40,79.55 55.61,78.21 54.00,76.98 52.56,76.02 51.26,75.45 50.00,75.32 48.73,75.71 47.38,76.55 45.87,77.82 44.15,79.41 42.19,81.18 39.99,82.97 37.62,84.64 35.09,86.01 32.53,86.96 30.02,87.37 27.69,87.23 25.62,86.47 23.92,85.16 22.64,83.34 21.79,81.13 21.37,78.63 21.35,75.96 21.65,73.26 22.17,70.64 22.78,68.18 23.39,65.95 23.90,63.97 24.15,62.23 24.12,60.72 23.76,59.38 23.03,58.18 21.97,57.02 20.62,55.85 19.00,54.59 17.23,53.23 15.41,51.71 13.61,50.00 11.90,48.13 10.36,46.10 9.06,43.93 8.04,41.65 7.32,39.30 6.93,36.94 6.87,34.56 7.16,32.26 7.78,30.04 8.74,27.95 10.01,26.03 11.59,24.33 13.46,22.90 15.61,21.78 17.98,20.98 20.56,20.56 23.30,20.55 26.12,20.90 28.95,21.64 31.75,22.70 34.42,24.01 36.89,25.47 39.13,27.00 41.08,28.48 42.76,29.76 44.15,30.72 45.31,31.27 46.28,31.33 47.15,30.84 48.02,29.78 48.94,28.22 50.00,26.21 51.28,23.90 52.82,21.40 54.61,18.92 56.65,16.57 58.88,14.56 61.22,13.02 63.58,12.04 65.87,11.71 67.96,12.02 69.79,12.97 71.30,14.45 72.45,16.40 73.27,18.63 73.78,21.04 74.05,23.44 74.24,25.76 74.44,27.86 74.76,29.68 75.33,31.20 76.27,32.46 77.59,33.47 79.32,34.34 81.44,35.13 83.86,35.97 86.46,36.95 89.07,38.15 91.55,39.59 93.73,41.30 95.43,43.27 96.55,45.42 97.00,47.68" fill="none" stroke="black" stroke-width="1"/>
</svg>