<svg xmlns="http://www.w3.org/2000/svg" viewBox="0 0 100 100">
  <polygon points="89.90,50.00 89.85,51.96 89.72,53.91 89.48,55.85 89.13,57.78 88.70,59.70 88.19,61.58 87.57,63.45 86.87,65.27 86.07,67.06 85.19,68.81 84.22,70.51 83.17,72.17 82.05,73.77 80.84,75.31 79.57,76.80 78.21,78.21 76.80,79.57 75.31,80.84 73.77,82.05 72.17,83.17 70.51,84.22 68.81,85.19 67.06,86.07 65.27,86.87 63.45,87.57 61.58,88.19 59.70,88.70 57.78,89.13 55.85,89.48 53.91,89.72 51.96,89.85 50.00,89.90 48.04,89.85 46.09,89.72 44.15,89.48 42.22,89.13 40.30,88.70 38.42,88.19 36.55,87.57 34.73,86.87 32.94,86.07 31.19,85.19 29.49,84.22 27.83,83.17 26.23,82.05 24.69,80.84 23.20,79.57 21.79,78.21 20.43,76.80 19.16,75.31 17.95,73.77 16.83,72.17 15.78,70.51 14.81,68.81 13.93,67.06 13.13,65.27 12.43,63.45 11.81,61.58 11.30,59.70 10.87,57.78 10.52,55.85 10.28,53.91 10.15,51.96 10.10,50.00 10.15,48.04 10.28,46.09 10.52,44.15 10.87,42.22 11.30,40.30 11.81,38.42 12.43,36.55 13.13,34.73 13.93,32.94 14.81,31.19 15.78,29.49 16.83,27.83 17.95,26.23 19.16,24.69 20.43,23.20 21.79,21.79 23.20,20.43 24.69,19.16 26.23,17.95 27.83,16.83 29.49,15.78 31.19,14.81 32.94,13.93 34.73,13.13 36.55,12.43 38.42,11.81 40.30,11.30 42.22,10.87 44.15,10.52 46.09,10.28 48.04,10.15 50.00,10.10 51.96,10.15 53.91,10.28 55.85,10.52 57.78,10.87 59.70,11.30 61.58,11.81 63.45,12.43 65.27,13.13 67.06,13.93 68.81,14.81 70.51,15.78 72.17,16.83 73.77,17.95 75.31,19.16 76.80,20.43 78.21,21.79 79.57,23.20 80.84,24.69 82.05,26.23 83.17,27.83 84.22,29.49 85.19,31.19 86.07,32.94 86.87,34.73 87.57,36.55 88.19,38.42 88.70,40.30 89.13,42.22 89.48,44.15 89.72,46.09 89.85,48.04" fill="none" stroke="black" stroke-width="1"/>
</svg>