<svg xmlns="http://www.w3.org/2000/svg" viewBox="0 0 100 100">
  <polygon points="98.06,62.88 97.63,64.23 97.09,65.54 96.44,66.82 95.68,68.05 94.80,69.25 93.82,70.40 92.73,71.50 91.54,72.55 90.26,73.54 88.87,74.47 87.39,75.35 85.82,76.16 84.16,76.92 82.42,77.60 80.60,78.23 78.71,78.78 76.75,79.26 74.72,79.68 72.64,80.02 70.50,80.28 68.32,80.48 66.08,80.61 63.81,80.66 61.51,80.64 59.16,80.53 56.82,80.36 54.45,80.11 52.07,79.80 49.67,79.41 47.29,78.95 44.91,78.42 42.55,77.82 40.19,77.15 37.88,76.42 35.57,75.63 33.31,74.77 31.09,73.85 28.92,72.89 26.79,71.85 24.72,70.78 22.72,69.65 20.78,68.46 18.91,67.24 17.10,65.97 15.38,64.68 13.75,63.34 12.20,61.97 10.75,60.57 9.39,59.14 8.12,57.70 6.97,56.23 5.90,54.75 4.95,53.26 4.10,51.75 3.36,50.25 2.75,48.76 2.24,47.25 1.85,45.76 1.57,44.27 1.41,42.80 1.37,41.35 1.44,39.92 1.64,38.50 1.94,37.12 2.37,35.77 2.91,34.46 3.56,33.18 4.32,31.95 5.20,30.75 6.18,29.60 7.27,28.50 8.46,27.45 9.74,26.46 11.13,25.53 12.61,24.65 14.18,23.84 15.84,23.08 17.58,22.40 19.40,21.77 21.29,21.22 23.25,20.74 25.28,20.32 27.36,19.98 29.50,19.72 31.68,19.52 33.92,19.39 36.19,19.34 38.49,19.36 40.84,19.47 43.18,19.64 45.55,19.89 47.93,20.20 50.33,20.59 52.71,21.05 55.09,21.58 57.45,22.18 59.81,22.85 62.12,23.58 64.43,24.37 66.69,25.23 68.91,26.15 71.08,27.11 73.21,28.15 75.28,29.22 77.28,30.35 79.22,31.54 81.09,32.76 82.90,34.03 84.62,35.32 86.25,36.66 87.80,38.03 89.25,39.43 90.61,40.86 91.88,42.30 93.03,43.77 94.10,45.25 95.05,46.74 95.90,48.25 96.64,49.75 97.25,51.24 97.76,52.75 98.15,54.24 98.43,55.73 98.59,57.20 98.63,58.65 98.56,60.08 98.36,61.50" fill="none" stroke="black" stroke-width="1"/>
</svg>