<svg xmlns="http://www.w3.org/2000/svg" viewBox="0 0 100 100">
  <polygon points="80.81,41.74 92.98,44.91 92.98,55.09 80.81,58.26 89.76,67.08 84.68,75.90 72.55,72.55 75.90,84.68 67.08,89.76 58.26,80.81 55.09,92.98 44.91,92.98 41.74,80.81 32.92,89.76 24.10,84.68 27.45,72.55 15.32,75.90 10.24,67.08 19.19,58.26 7.02,55.09 7.02,44.91 19.19,41.74 10.24,32.92 15.32,24.10 27.45,27.45 24.10,15.32 32.92,10.24 41.74,19.19 44.91,7.02 55.09,7.02 58.26,19.19 67.08,10.24 75.90,15.32 72.55,27.45 84.68,24.10 89.76,32.92" fill="none" stroke="black" stroke-width="1"/>
</svg>