<svg xmlns="http://www.w3.org/2000/svg" viewBox="0 0 100 100">
  <polygon points="53.51,29.48 53.90,29.91 54.38,30.34 54.90,30.78 55.41,31.21 55.93,31.64 56.44,32.07 56.94,32.50 57.42,32.94 57.89,33.37 58.33,33.80 58.76,34.23 59.17,34.67 59.55,35.10 59.92,35.53 60.26,35.96 60.57,36.39 60.87,36.83 61.14,37.26 61.39,37.69 61.62,38.12 61.82,38.55 62.01,38.99 62.17,39.42 62.31,39.85 62.43,40.28 62.53,40.71 62.61,41.15 62.67,41.58 62.71,42.01 62.73,42.44 62.74,42.87 62.73,43.31 62.70,43.74 62.66,44.17 62.60,44.60 62.52,45.03 62.43,45.47 62.33,45.90 62.22,46.33 62.09,46.76 61.95,47.19 61.80,47.62 61.64,48.06 61.47,48.49 61.30,48.92 61.11,49.35 60.92,49.78 60.72,50.22 60.51,50.65 60.30,51.08 60.08,51.51 59.86,51.94 59.64,52.38 59.41,52.81 59.18,53.24 58.95,53.67 58.72,54.10 58.48,54.53 58.25,54.97 58.02,55.40 57.78,55.83 57.55,56.26 57.33,56.69 57.10,57.13 56.88,57.56 56.67,57.99 56.46,58.42 56.25,58.85 56.05,59.29 55.85,59.72 55.66,60.15 55.47,60.58 55.30,61.01 55.12,61.45 54.96,61.88 54.81,62.31 54.66,62.74 54.52,63.17 54.39,63.61 54.27,64.04 54.16,64.47 54.06,64.90 53.96,65.33 53.88,65.77 53.80,66.20 53.74,66.63 53.68,67.06 53.63,67.50 53.59,67.93 53.56,68.36 53.54,68.79 53.52,69.22 53.51,69.66 53.51,70.09 53.51,70.52 53.51,70.09 53.50,69.66 53.50,69.22 53.48,68.79 53.46,68.36 53.44,67.93 53.41,67.50 53.37,67.06 53.33,66.63 53.28,66.20 53.21,65.77 53.15,65.33 53.08,64.90 53.00,64.47 52.91,64.04 52.82,63.61 52.72,63.17 52.61,62.74 52.50,62.31 52.37,61.88 52.25,61.45 52.12,61.01 51.98,60.58 51.83,60.15 51.68,59.72 51.53,59.29 51.38,58.85 51.21,58.42 51.05,57.99 50.88,57.56 50.71,57.13 50.53,56.69 50.36,56.26 50.18,55.83 50.00,55.40 49.82,54.97 49.64,54.53 49.45,54.10 49.27,53.67 49.09,53.24 48.91,52.81 48.74,52.38 48.56,51.94 48.39,51.51 48.22,51.08 48.06,50.65 47.90,50.22 47.74,49.78 47.59,49.35 47.45,48.92 47.31,48.49 47.18,48.06 47.05,47.62 46.94,47.19 46.83,46.76 46.73,46.33 46.64,45.90 46.57,45.47 46.49,45.03 46.44,44.60 46.39,44.17 46.36,43.74 46.33,43.31 46.32,42.87 46.33,42.44 46.34,42.01 46.38,41.58 46.43,41.15 46.49,40.71 46.57,40.28 46.66,39.85 46.77,39.42 46.89,38.99 47.04,38.55 47.20,38.12 47.37,37.69 47.57,37.26 47.78,36.83 48.01,36.39 48.26,35.96 48.52,35.53 48.80,35.10 49.10,34.67 49.42,34.23 49.75,33.80 50.10,33.37 50.46,32.94 50.84,32.50 51.22,32.07 51.62,31.64 52.02,31.21 52.43,30.78 52.82,30.34 53.20,29.91" fill="none" stroke="black" stroke-width="1"/>
</svg>