<svg xmlns="http://www.w3.org/2000/svg" viewBox="0 0 100 100">
  <polygon points="54.96,50.00 54.71,50.46 54.46,50.89 54.21,51.28 53.94,51.63 53.66,51.96 53.39,52.27 53.14,52.57 52.90,52.90 52.68,53.27 52.47,53.69 52.22,54.15 51.92,54.63 51.54,55.08 51.08,55.43 50.55,55.63 50.00,55.66 49.46,55.50 48.97,55.20 48.55,54.80 48.19,54.38 47.86,54.00 47.52,53.71 47.12,53.50 46.64,53.36 46.07,53.23 45.46,53.04 44.88,52.74 44.41,52.31 44.14,51.78 44.10,51.17 44.29,50.56 44.67,50.00 45.15,49.52 45.63,49.13 46.03,48.79 46.29,48.46 46.41,48.08 46.44,47.62 46.43,47.07 46.47,46.47 46.63,45.89 46.94,45.41 47.38,45.10 47.93,45.00 48.51,45.10 49.08,45.35 49.57,45.67 50.00,45.97 50.38,46.16 50.75,46.21 51.18,46.11 51.69,45.92 52.30,45.70 52.99,45.53 53.69,45.50 54.36,45.64 54.92,45.96 55.33,46.44 55.56,47.03 55.63,47.67 55.57,48.31 55.41,48.92 55.19,49.49" fill="none" stroke="black" stroke-width="1"/>
</svg>