<svg xmlns="http://www.w3.org/2000/svg" viewBox="0 0 100 100">
  <polygon points="98.00,50.00 98.11,51.66 97.89,53.31 97.33,54.92 96.48,56.46 95.36,57.90 94.01,59.24 92.49,60.45 90.83,61.53 89.09,62.49 87.33,63.34 85.59,64.10 83.93,64.78 82.37,65.41 80.95,66.02 79.70,66.65 78.62,67.31 77.73,68.04 77.02,68.86 76.47,69.79 76.08,70.84 75.81,72.02 75.64,73.33 75.53,74.76 75.45,76.29 75.37,77.91 75.26,79.59 75.09,81.30 74.83,83.02 74.47,84.71 74.00,86.33 73.40,87.87 72.67,89.29 71.81,90.57 70.84,91.69 69.75,92.64 68.56,93.40 67.30,93.97 65.96,94.35 64.58,94.56 63.17,94.59 61.74,94.45 60.31,94.17 58.89,93.75 57.50,93.22 56.13,92.59 54.81,91.88 53.53,91.09 52.30,90.26 51.13,89.39 50.00,88.50 48.93,87.60 47.90,86.70 46.92,85.82 45.98,84.98 45.08,84.17 44.20,83.42 43.35,82.74 42.50,82.14 41.64,81.64 40.77,81.23 39.87,80.94 38.93,80.76 37.92,80.70 36.84,80.76 35.67,80.93 34.40,81.21 33.03,81.57 31.54,81.99 29.94,82.46 28.24,82.95 26.43,83.42 24.55,83.85 22.60,84.19 20.62,84.42 18.63,84.51 16.68,84.42 14.80,84.14 13.03,83.65 11.41,82.93 9.98,81.99 8.77,80.82 7.82,79.44 7.15,77.87 6.78,76.14 6.70,74.27 6.93,72.30 7.44,70.26 8.22,68.20 9.23,66.15 10.43,64.14 11.79,62.21 13.24,60.38 14.73,58.67 16.20,57.09 17.61,55.64 18.89,54.32 20.01,53.12 20.91,52.01 21.59,50.98 22.00,50.00 22.15,49.04 22.04,48.06 21.67,47.05 21.08,45.98 20.30,44.83 19.36,43.57 18.32,42.21 17.21,40.74 16.11,39.17 15.05,37.51 14.09,35.78 13.26,34.00 12.62,32.21 12.18,30.43 11.98,28.69 12.02,27.03 12.31,25.48 12.85,24.07 13.62,22.80 14.59,21.70 15.76,20.78 17.08,20.04 18.52,19.47 20.05,19.06 21.63,18.79 23.23,18.65 24.83,18.59 26.39,18.60 27.89,18.65 29.33,18.70 30.68,18.73 31.95,18.71 33.13,18.61 34.22,18.43 35.25,18.15 36.20,17.75 37.11,17.24 37.99,16.63 38.84,15.90 39.68,15.08 40.54,14.17 41.41,13.20 42.31,12.17 43.25,11.10 44.24,10.02 45.28,8.94 46.38,7.87 47.53,6.83 48.74,5.83 50.00,4.90 51.31,4.04 52.67,3.27 54.07,2.60 55.51,2.04 56.97,1.60 58.44,1.30 59.93,1.16 61.40,1.17 62.85,1.36 64.26,1.72 65.62,2.28 66.91,3.03 68.10,3.98 69.20,5.12 70.17,6.44 71.02,7.95 71.72,9.61 72.27,11.41 72.66,13.32 72.91,15.32 73.01,17.36 72.99,19.43 72.86,21.48 72.64,23.48 72.37,25.39 72.08,27.19 71.80,28.85 71.58,30.36 71.46,31.69 71.46,32.85 71.63,33.83 71.99,34.65 72.57,35.32 73.37,35.86 74.42,36.31 75.69,36.70 77.19,37.06 78.88,37.42 80.73,37.83 82.71,38.31 84.77,38.89 86.85,39.59 88.90,40.44 90.86,41.43 92.67,42.57 94.29,43.85 95.67,45.25 96.76,46.76 97.55,48.36" fill="none" stroke="black" stroke-width="1"/>
</svg>